# xmcd
#
# Track frame offsets: 
#        150
#        16425
#        34257
#        52489
#        72350
#        92602
#        109335
#        128527
#        148645
#        166657
#        185012
#        205082
#        223455
#        241307
#
# Disc length: 3481 seconds
#
# Revision: 0
# Processed by: cddbd v1.5.2PL0 Copyright (c) Steve Scherf et al.
# Submitted via: ExactAudioCopyFreeDBPlugin 1.0
#
DISCID=d40d970e
DTITLE=Nong Taprachan - Northeastern Thai Music (Lamsing)
DYEAR=1900
DGENRE=Country
TTITLE0=Mng-Poo Tom Doke
TTITLE1=Lom-Pad Praw
TTITLE2=Sud Sa-Nan
TTITLE3=Rum Can
TTITLE4=Nok Sai Bin Kam Thung
TTITLE5=Saw-Long Kuang
TTITLE6=Yae Kai Mangda
TTITLE7=Lom-Pad Phai
TTITLE8=Mae-Harng Kom Look
TTITLE9=lai-Wow Khun Kaw
TTITLE10=Saw Tum-Hook
TTITLE11=Nam Tone Tard
TTITLE12=Pee-Fa Pee-Tan
TTITLE13=Can Long krong
EXTD=
EXTT0=
EXTT1=
EXTT2=
EXTT3=
EXTT4=
EXTT5=
EXTT6=
EXTT7=
EXTT8=
EXTT9=
EXTT10=
EXTT11=
EXTT12=
EXTT13=
PLAYORDER=
